<?xml version="1.0" encoding="utf-8"?>
<!-- Generator: Adobe Illustrator 23.0.0, SVG Export Plug-In . SVG Version: 6.00 Build 0)  -->
<svg version="1.1" id="图层_1" xmlns="http://www.w3.org/2000/svg" xmlns:xlink="http://www.w3.org/1999/xlink" x="0px" y="0px"
	 viewBox="0 0 48 48" style="enable-background:new 0 0 48 48;" xml:space="preserve">
<style type="text/css">
	.st0{fill:#039BE5;}
	.st1{fill:#FFFFFF;}
</style>
<g>
	<path class="st0" d="M36,42H12c-3.31,0-6-2.69-6-6V12c0-3.31,2.69-6,6-6h24c3.31,0,6,2.69,6,6v24C42,39.31,39.31,42,36,42z"/>
	<path class="st1" d="M26.86,26.49c0.59-0.95,1.07-1.98,1.41-3.05c0.41-1.01,0.7-2.06,0.86-3.14h-5.79v-1.98h6.95v-1.44h-6.95v-3.2
		h-3.47v3.14h-6.64v1.37h6.54v2.08h-5.22v1.16h10.83c-0.1,0.69-0.27,1.37-0.51,2.03c-0.45,1.11-0.86,2.07-0.86,2.07
		s-5.06-1.77-7.75-1.77c-2.69,0-5.92,1.1-6.23,4.2c-0.31,3.1,1.52,4.82,4.1,5.42c2.36,0.49,4.82,0.14,6.95-1.01
		c1.54-0.87,2.93-1.99,4.11-3.3l10.73,5.22c0,0,0.66-1.02,1.16-1.98c0.34-0.66,0.65-1.34,0.91-2.03L26.86,26.49z M15.81,31.68
		c-3.75,0-4.55-1.88-4.55-3.2c0-1.32,0.81-2.79,4-2.99c3.18-0.2,7.5,2.28,7.5,2.28S19.57,31.68,15.81,31.68z"/>
</g>
</svg>
