<?xml version="1.0" encoding="utf-8"?>
<!-- Generator: Adobe Illustrator 23.0.0, SVG Export Plug-In . SVG Version: 6.00 Build 0)  -->
<svg version="1.1" id="图层_1" xmlns="http://www.w3.org/2000/svg" xmlns:xlink="http://www.w3.org/1999/xlink" x="0px" y="0px"
	 viewBox="0 0 48 48" style="enable-background:new 0 0 48 48;" xml:space="preserve">
<style type="text/css">
	.st0{fill:#3A4C8D;}
	.st1{fill:#B0D3E5;}
	.st2{fill:#E59924;}
	.st3{fill:#E6CF31;}
	.st4{fill:#E2B329;}
	.st5{fill:#4C78AD;}
</style>
<path class="st0" d="M14.6,40.5l23.1-11.3c1-0.5,1.4-1.6,0.9-2.7l-7.9-16.1c-0.4-0.8-1.2-1.2-1.8-1.2c-0.1,0-0.3,0.1-0.5,0.1
	l-24,11.7l-0.7,1.6l8.3,16.9C12.4,40.6,13.6,41,14.6,40.5z"/>
<path class="st1" d="M29.4,11.5L5.8,23.1c-0.5,0.2-1.5,0.2-1.8-0.4c-0.4-0.8,0.5-1.7,1.2-2l23-11.2L28,9.1L5,20.4
	c-1,0.5-1.7,1.6-1.3,2.5s1.4,1.2,2.4,0.7l23.8-11.7C29.9,11.8,29.4,11.5,29.4,11.5z"/>
<path class="st1" d="M27.8,10.9c-1,0.4-21.6,10.4-22.4,10.9c-0.9,0.5-1,1.6-1,1.6l0.3,0.1c0,0,0.1-1,0.9-1.4
	C6.4,21.7,27.4,11.5,28,11.2h-0.1H28c0.1,0,1-0.1,1.5,1l0.3-0.1C29,10.5,27.8,10.9,27.8,10.9z M28.1,9.4c0,0,1.7-0.5,2.7,1.4
	c0,0-0.8-2.3-2.7-1.7l-0.1,0.3C27.9,9.4,28.1,9.4,28.1,9.4z"/>
<path class="st2" d="M22.9,13.9C23,14,23,14.1,23,14.2c-0.9-2.7,0.8-4.7,1-4.9V9.2C24,9.3,22,11.1,22.9,13.9 M27.1,13.5
	c-1.4,0.1-2.5-0.5-3-1.6c0.5,1.2,1.8,2.1,3.3,2c2.9-0.3,3.8-3.1,2.5-5C30.7,10.9,29.8,13.3,27.1,13.5L27.1,13.5z"/>
<path class="st2" d="M25.6,4.6c-3.8,0.3-7.2,2.8-8.1,6.9c-0.8,3.5,0.8,6.9,2.9,8.8c-2-1.9-3.4-5-2.7-8.3c1-4.1,3.8-6.8,8-7.1
	c2.7-0.3,5.4,0.8,7.1,2.9c-1.2-1.8-3.4-3.2-6.4-3.2C26.3,4.6,26,4.6,25.6,4.6z M27.4,20.2h1.1l0.1-0.1c0.6-0.1,1.2-0.3,1.7-0.6
	C28.9,20,28.9,20,29,20h0.1c0.6-0.2,1.2-0.5,1.8-0.8L29.2,20c0.7-0.2,1.3-0.5,1.8-0.9c-1.6,0.8-1.6,0.8-1.6,0.8h0.1
	c0.1,0,0.1,0,0.1-0.1h0.1l0.1-0.1c0.5-0.2,1.1-0.5,1.5-1C30,19.7,30,19.7,30,19.7c0.5-0.2,0.9-0.5,1.4-0.8c1.2-0.8,2.3-1.9,3-3.1
	c-0.9,1.4,0.1,0,1.2-1.2l0.1-0.1l0.1-0.1l0.1-0.1c0-0.1,0.1-0.1,0.1-0.1c1-1.1,2.3-2,3.7-2.5C36.2,14,36.2,14,36.3,14
	c1-1,2.2-1.7,3.4-2.2l-3.3,2.1c1-1,2.2-1.6,3.5-2.1c-3.3,1.9-3.3,1.9-3.2,1.9c1-0.9,2.2-1.6,3.4-2c-3.2,1.8-3.2,1.8-3.2,1.8
	c1-0.8,2.2-1.5,3.5-1.9c-3.3,1.8-3.3,1.7-3.3,1.7c0.1-0.1,0.1-0.1,0.1-0.1c1-0.8,2.1-1.2,3.2-1.5c-2,0.7-1,0.2,0.1,0l-2.8,0.9
	c1.2-0.8,2.5-1.2,3.8-1.2c0.9-0.1,1.7,0,2.5,0.3c0,0-1.2-0.6-2.8-0.6c-1.6,0-3.9,0.6-6,2.9c-1.1,1.3-2.1,2.7-3.4,3.8
	c-0.7,0.5-1.4,1-2.2,1.4c-1.6,0.8-3.6,1-5.5,0.4c1,0.4,2,0.7,3.1,0.8H27.4L27.4,20.2z"/>
<path class="st3" d="M44.3,11.6c-0.4-0.1-0.9-0.3-1.4-0.3l1.1,0.2C44.2,11.5,44.3,11.5,44.3,11.6L44.3,11.6z M41.6,11.2h1.1H41.6
	L41.6,11.2z"/>
<path class="st3" d="M41.6,11.2h1.3l1.2,0.2h0.1C43.3,11.2,42.4,11.1,41.6,11.2z M37,18.1c-1.8,2.3-3.4,3.6-5.7,4.4
	c-2.5,1-5.7,1.2-9.4-1H22c3.8,2.4,7.4,2.1,9.9,1c2.3-1,4-2.6,5.7-4.9c2.3-3.1,3.6-6,7-6.1C40.8,11.6,39.3,15.1,37,18.1z"/>
<path class="st3" d="M34.4,11.1c0.4,4.6-4.1,7.3-7.9,6.2c0.1,0,0.2,0.1,0.3,0.1c3.6,1.2,8.4-1.6,7.9-6.2c-0.3-2.2-1.9-4.4-4.4-5.4
	C32.6,6.8,34.2,9,34.4,11.1z M19.4,19.1c0.4,0.6,1,1.2,1.5,1.6C20.4,20.3,19.8,19.7,19.4,19.1z"/>
<path class="st3" d="M27.4,14c0.3,0,0.5-0.1,0.8-0.1c-1.4,0.1-2.3-0.1-2.9-0.5C25.8,13.9,26.6,14.1,27.4,14z M24.1,19.6
	c-0.7-0.3-1.4-0.6-2-1.1L24.1,19.6z"/>
<path class="st3" d="M25.6,7.3c-3,0.2-5.2,2.2-5.7,4.9c-0.5,2.7,0.8,4.9,1.8,6c-0.5-0.5-1-1.2-1.3-2c1.9,2.5,2.8,3,3.8,3.3
	c-0.8-0.3-1.6-0.8-2.2-1.4c-1.2-1-2.3-3-1.8-5.9c0.3-2.3,2.7-4.7,5.7-4.8c5-0.1,5.2,4.7,3.1,6.2C31.7,11.9,30.6,7,25.6,7.3L25.6,7.3
	z"/>
<path class="st3" d="M21.7,18.1c0.4,0.4,0.9,0.7,1.4,0.9c-0.6-0.2,0.2,0.3,1.1,0.6C22,18.3,22,18.3,22,18.3l0.1,0.1l0.1,0.1
	c0.1,0,0.1,0.1,0.1,0.1c0.7,0.5,1.5,1,2.4,1.2c-2.3-1.2-2.3-1.1-2.3-1.1c0.8,0.5,1.6,1,2.5,1.2c-2.3-1-2.3-1-2.2-1s0.1,0.1,0.1,0.1
	H23c0.8,0.5,1.6,0.8,2.4,1l-2.1-0.8c0.8,0.4,1.5,0.7,2.3,0.8c-2.2-0.8-2.2-0.8-2.1-0.7c0.7,0.3,1.5,0.6,2.3,0.8l-2-0.5
	c0.1,0,0.1,0.1,0.1,0.1c0.1,0,0.1,0.1,0.1,0.1h0.1l0.1,0.1h0.1c0.6,0.2,1.3,0.3,1.9,0.4c-1.7-0.3-1.6-0.3-1.6-0.3h0.1l0.1,0.1h0.1
	c0.1,0,0.2,0.1,0.3,0.1h1.6h-0.3h1c-1.3-0.1-2.3-0.3-3.4-0.7c-1-0.3-1.9-0.8-2.7-1.5c0.5,0.6,1.2,1.1,2,1.4L21.7,18.1L21.7,18.1z"/>
<path class="st4" d="M31.3,22.6c2.3-0.9,3.9-2.1,5.7-4.4c2.3-3,3.9-6.6,7.6-6.4c0,0-0.1-0.1-0.3-0.1c-0.5-0.1-1-0.3-1.5-0.3l1.2,0.2
	c-0.4-0.1-0.8-0.2-1.2-0.2h-1.3c-1.4,0.1-2.7,0.5-3.8,1.2c-0.9,0.6-1.7,1.3-2.4,2.2c1.2-1.4,0.3-0.5-0.3,0.5l2.1-2.3
	c-0.1,0.1-0.1,0.1-0.1,0.1h-0.1l-0.1,0.1l-0.1,0.1c-0.1,0.1-0.1,0.1-0.1,0.1c-1,0.9-1.8,1.9-2.4,3.1l2.2-2.9c-1,1-1.8,2.1-2.5,3.4
	c2.3-3.3,2.3-3.2,2.3-3.2c-1,1-1.9,2.3-2.5,3.6c2.3-3.4,2.2-3.4,2.2-3.4l-0.1,0.1l-0.1,0.1l-0.1,0.1c-1.1,1.2-2.1,2.7-3.4,3.8
	c-1.1,1-2.5,1.6-3.8,2.1c2.6-1.1,2.1-0.9,1.7-0.6H30l-0.1,0.1c-0.7,0.3-1.4,0.5-2.1,0.5l1.9-0.5l-0.1-0.1h-0.1
	c-0.6,0.2-1.2,0.3-1.9,0.4c1.7-0.3,1.7-0.3,1.6-0.3h-0.1c-0.6,0.2-1.2,0.3-1.8,0.3l1.7-0.3h-0.1c-0.5,0.1-1.2,0.3-1.7,0.3l1.5-0.2
	c-0.5,0.1-1,0.2-1.5,0.2l1.3-0.1h-2h0.1c-0.2,0-0.4,0-0.6-0.1h0.3c-0.3,0-0.5-0.1-0.8-0.1l0.6,0.1c-0.3-0.1-0.7-0.1-1-0.2
	c0.8,0.1,0.8,0.1,0.7,0.1c-0.4-0.1-0.8-0.1-1.2-0.3l1,0.3c-0.5-0.1-0.9-0.2-1.3-0.3l1.2,0.3h-0.1c-0.5-0.1-1.2-0.3-1.6-0.6
	c1.3,0.5,1.3,0.5,1.3,0.5c-0.1,0-0.1,0-0.1-0.1h-0.1c-0.6-0.2-1.2-0.5-1.7-0.8c0.9,0.5,0.3,0.2-0.2-0.1c1.6,0.8,1.6,0.8,1.6,0.8
	c-0.7-0.3-1.3-0.6-1.8-1c1.6,1,1.6,0.9,1.6,0.9c-0.7-0.3-1.4-0.8-2-1.2l1.8,1.2c-0.8-0.3-1.4-0.8-2-1.4l1.6,1.2
	c-0.8-0.4-1.4-0.9-2-1.5l1.8,1.4c-0.7-0.4-1.3-0.9-1.8-1.5c1.6,1.4,1.6,1.4,1.5,1.4H23c-0.8-0.5-1.4-1.1-1.9-1.8l1.6,1.8
	c-0.8-0.5-1.4-1.2-1.9-1.9c1.6,1.7,1.6,1.7,1.6,1.7c-0.7-0.5-1.3-1.2-1.8-2l1.6,1.8c-0.7-0.5-1.3-1.2-1.7-2.1
	c1.6,1.9,1.6,1.9,1.5,1.9c-0.7-0.6-1.2-1.3-1.6-2.1c1.6,2.1,1.6,2,1.5,2c-0.7-0.6-1.3-1.4-1.7-2.3c1.5,2.1,1.5,2.1,1.5,2.1
	c-1.1-1.1-2.4-3.2-1.8-6c0.5-2.7,2.7-4.7,5.7-4.9c4.9-0.3,6,4.6,3.3,6.2C28.5,13.8,28,14,27.6,14c-0.1,0-0.3,0.1-0.4,0.1
	c-0.8,0.1-1.5-0.1-2.1-0.6c-1.3-1-1.9-2.7-1.2-4.1l-0.1,0.1c-0.4,0.5-1.6,2.3-0.9,4.7c0.5,1.4,2,2.6,3.3,3c0.1,0,0.1,0,0.1,0.1
	c3.8,1.1,8.3-1.5,7.9-6.2c-0.2-2.1-1.8-4.2-4.1-5.4c-1.4-0.7-2.9-1-4.4-0.8c-4.1,0.3-7,2.9-7.9,7.1c-0.6,2.7,0.2,5.2,1.6,7.1
	c0.5,0.6,1,1.2,1.5,1.6c0.3,0.3,0.6,0.5,1,0.7H22C25.6,23.7,28.9,23.5,31.3,22.6z"/>
<path class="st4" d="M35.8,14L35.8,14L35.8,14z M32.2,18.1c-1.1,1-2.4,1.6-3.8,2.1c4.2-2.3,5.3-3.4,6-4.6c-0.9,1.4,0.1,0,1.2-1.2
	l0.1-0.1l-0.1,0.1C34.5,15.5,33.5,17,32.2,18.1L32.2,18.1z M44.1,11.5c-0.4-0.1-0.8-0.2-1.2-0.2C43.3,11.3,43.7,11.4,44.1,11.5z
	 M27.1,20.2h0.3H27.1z"/>
<path class="st5" d="M15.7,42.8l23.7-11.6c1-0.5,1.4-1.6,0.9-2.7l-7.9-16.1c-0.2-0.5-0.6-0.8-1.2-1c-0.5-0.1-1-0.1-1.5,0.1L4.3,24
	l8.8,17.9C13.5,42.9,14.8,43.3,15.7,42.8z"/>
<path class="st1" d="M29.4,11.5L5.8,23.1c-0.4,0.2-1.3,0.2-1.6-0.2l-0.3,0.2c0.5,0.6,1.4,0.8,2.2,0.4l23.8-11.7
	C29.8,11.8,29.4,11.5,29.4,11.5z"/>
<path class="st1" d="M29.8,11.8c0,0,1.7-1,2.8,0.9c0,0-1-2.3-3.2-1.2l-0.1,0.3C29.3,11.8,29.8,11.8,29.8,11.8z"/>
</svg>
