<?xml version="1.0" standalone="no"?><!DOCTYPE svg PUBLIC "-//W3C//DTD SVG 1.1//EN" "http://www.w3.org/Graphics/SVG/1.1/DTD/svg11.dtd"><svg t="1562122546698" class="icon" viewBox="0 0 1024 1024" version="1.1" xmlns="http://www.w3.org/2000/svg" p-id="8385" xmlns:xlink="http://www.w3.org/1999/xlink" width="200" height="200"><defs><style type="text/css"></style></defs><path d="M861.79328 270.63296c5.6064-5.59616 11.90912-11.90912 16.00512-19.11808 30.67904-38.08768 34.34496-95.73888 8.6016-137.57952-25.9328-42.14272-64.37376-63.5136-114.24256-63.5136L154.93632 50.42176c-11.96032 0-24.32 0-35.08224 3.39456-26.35264 6.3744-50.46272 21.94944-67.93728 43.89888C34.11968 120.064 24.32 147.69152 24.32 175.50336c0 36.09088 13.75232 68.07552 38.73792 90.10688 79.36512 76.64128 158.60224 155.84768 235.27424 232.5248l0 253.07136 0.13312 2.12992c4.16768 33.32096 29.48096 51.52256 60.11904 38.36416l0.53248-0.25088c16.57856-8.28416 26.08128-24.97024 26.08128-45.77792L385.19808 485.49888c0-17.5616-5.41184-31.88224-16.09216-42.56256-38.2976-38.30272-76.032-78.1056-112.51712-116.60288-37.61664-39.69024-76.5184-80.73216-117.17632-121.39008l-1.99168-2.01216-2.40128-1.18272c-0.5632-0.38912-1.81248-2.01728-2.75968-3.26144-1.03936-1.34656-2.05312-2.62144-3.11808-3.78368-7.01952-8.99584-8.4992-16.64-5.2224-26.9568 5.69856-12.89728 17.1264-27.6992 31.01184-27.6992l622.75584 0c7.58272 0 14.89408 4.096 20.5824 11.54048 7.37792 9.66144 10.12224 22.43584 7.08608 33.5872-1.54624 6.1696-4.1216 8.96512-11.89888 16.75776-85.75488 82.97984-167.66464 164.88448-254.38208 251.5968l-0.4608 0.46592c-8.78592 8.77568-18.8672 21.55008-18.8672 42.56768L519.74656 933.888c0 5.376 0 20.52608 11.07456 32.65024 0 0 3.36384 7.59296 17.86368 13.1072 17.92 6.8096 35.42528-0.9472 35.42528-0.9472l4.57216-3.42016c17.93024-13.45536 17.93024-34.41152 17.93024-46.93504l0-413.59872c42.88-42.7776 87.31136-84.38784 130.30912-124.65152C780.70784 349.10208 822.05696 310.3744 861.79328 270.63296zM957.59872 830.93504L722.3296 830.93504c-24.58112 0-39.2704 19.97312-39.2704 39.28576l0 11.07968c0 24.58624 19.96288 39.27552 39.2704 39.27552l235.26912 0c24.59136 0 39.28064-19.968 39.28064-39.27552l0-11.07968C996.87936 846.72512 981.0944 830.93504 957.59872 830.93504zM957.59872 689.78688L722.3296 689.78688c-24.58112 0-39.2704 19.97312-39.2704 39.28576l0 8.28928c0 24.59648 19.96288 39.29088 39.2704 39.29088l235.26912 0c24.59136 0 39.28064-19.97312 39.28064-39.29088l0-8.28928C996.87936 709.76 982.19008 689.78688 957.59872 689.78688zM957.59872 554.1632L722.3296 554.1632c-24.58112 0-39.2704 19.97312-39.2704 39.28576l0 5.53472c0 24.58112 19.96288 39.27552 39.2704 39.27552l235.26912 0c24.59136 0 39.28064-19.968 39.28064-39.27552l0-5.53472C996.87936 569.94816 981.0944 554.1632 957.59872 554.1632z" fill="#499DF1" p-id="8386"></path></svg>