<?xml version="1.0" encoding="utf-8"?>
<!-- Generator: Adobe Illustrator 23.0.0, SVG Export Plug-In . SVG Version: 6.00 Build 0)  -->
<svg version="1.1" id="图层_1" xmlns="http://www.w3.org/2000/svg" xmlns:xlink="http://www.w3.org/1999/xlink" x="0px" y="0px"
	 viewBox="0 0 48 48" style="enable-background:new 0 0 48 48;" xml:space="preserve">
<style type="text/css">
	.st0{fill:#E60012;}
	.st1{fill:#00508E;}
	.st2{fill:#00908C;}
	.st3{fill:#FFFFFF;}
</style>
<g>
	<path class="st0" d="M11.2,9.75c-1.3,0.1-2.5,1.2-2.9,2.3c-0.2,0.8-5.61,23.69-5.61,24.09c0,1.1,0.6,1.9,1.6,2.1
		c0.4,0.1,12.4,0.1,12.8,0c1.1-0.2,2.2-1.1,2.6-2.2c0.2-0.4,5.71-23.79,5.71-24.19c0.1-1-0.5-1.8-1.5-2.1
		C23.7,9.75,11.7,9.65,11.2,9.75z"/>
	<path class="st1" d="M22.4,9.75c-1.2,0.2-2.4,1.2-2.8,2.3c-0.2,0.7-5.61,23.69-5.61,24.09c0,1.1,0.6,1.9,1.6,2.1
		c0.4,0.1,12.4,0.1,12.8,0c1.1-0.2,2.2-1.1,2.6-2.2c0.2-0.4,5.71-23.79,5.71-24.19c0.1-1-0.5-1.8-1.5-2.1
		C34.9,9.75,22.9,9.65,22.4,9.75L22.4,9.75z"/>
	<path class="st2" d="M34.1,9.75c-1.2,0.2-2.4,1.2-2.8,2.3c-0.2,0.8-5.61,23.69-5.61,24.09c0,1.1,0.6,1.9,1.6,2.1
		c0.4,0.1,9.3,0.1,9.7,0c1.1-0.2,2.2-1.1,2.6-2.2c0.2-0.5,5.71-23.79,5.71-24.19c0.1-1-0.5-1.8-1.5-2.1c-0.2-0.1-10.3-0.1-10.8,0
		H34.1L34.1,9.75L34.1,9.75z"/>
	<path class="st3" d="M10.61,17.61c0,0,0,0.2-0.1,0.3c-0.5,1.7-1,4-1,4.3c0.2,0.9,1.4,0.8,1.9-0.1c0.1-0.2,1.1-4.3,1.1-4.6h1.5v0.1
		c0,0.1-0.3,1-0.5,2.1c-0.6,2.3-0.7,2.6-1,3c-1,1.5-4.4,1.5-4.7-0.1c-0.1-0.3,0.7-4.2,1-5.2C8.81,17.51,10.61,17.61,10.61,17.61
		L10.61,17.61z M33.21,17.61c1,0.2,1.3,1,0.9,2.3c-0.5,1.2-1.5,1.7-3.2,1.7c-0.5,0-0.5-0.1-0.8,1.6c-0.1,0.3-0.1,0.6-0.1,0.6
		c0,0.1-1.6,0.1-1.6,0c1.3-5.7,1.4-6.2,1.4-6.2v-0.1h1.6C32.61,17.61,33.01,17.61,33.21,17.61z M19.51,19.81c0.2,0,0.4,0.2,0.4,0.4
		c0,0.6-1.1,0.9-1.5,0.5S18.81,19.61,19.51,19.81z M15.61,20.21c0,0,0,0.1,0,0.2v0.1l0.3-0.1c0.7-0.4,1.4-0.3,1.6,0.2
		c0.1,0.3,0.1,0.4-0.2,2.1c-0.1,0.3-0.2,0.7-0.2,0.9c-0.1,0.4,0,0.4-0.8,0.4c-0.7,0-0.7,0-0.7-0.1c0,0,0.1-0.4,0.2-0.8
		c0.4-1.6,0.4-1.8,0.1-1.8c-0.2,0-0.4,0.1-0.4,0.2c0,0.2-0.4,2.1-0.5,2.3v0.2h-0.7c-0.8,0-0.8,0.1-0.6-0.7c0.2-1,0.4-1.7,0.5-2.3
		c0.1-0.7,0-0.6,0.7-0.7C15.21,20.31,15.51,20.21,15.61,20.21C15.61,20.11,15.61,20.11,15.61,20.21L15.61,20.21z M26.11,20.21
		c0,0,0,0.1,0,0.2v0.1l0.3-0.1c1.4-0.7,1.9-0.1,1.5,1.7c-0.1,0.4-0.2,1-0.3,1.2c0,0.3-0.1,0.5-0.1,0.6c-0.1,0.1-1.4,0.1-1.4,0
		c0,0,0.1-0.4,0.2-0.8c0.4-1.6,0.4-1.8,0-1.8c-0.3,0-0.4,0.1-0.4,0.3c-0.1,0.2-0.4,1.8-0.4,2.1v0.2h-0.7c-0.8,0-0.8,0.1-0.6-0.7
		c0.2-0.9,0.4-1.7,0.5-2.3c0.1-0.6,0-0.5,0.6-0.6c0.2,0,0.6-0.1,0.7-0.1C26.01,20.11,26.11,20.11,26.11,20.21L26.11,20.21z
		 M39.51,20.21c0.1,1.3,0.1,1.7,0.1,1.8s0.2-0.3,0.4-0.8c0.4-0.9,0.4-0.8,0.8-0.9c0.1,0,0.4-0.1,0.6-0.1c0.5-0.1,0.5-0.1-0.1,0.8
		c-0.8,1.3-1.8,3.1-2.2,3.8c-1.1,2.1-1.1,2.1-2.1,2.1h-0.6v-0.2c0-0.1,0.1-0.3,0.1-0.4l0.1-0.2h0.2c0.2,0,0.2,0,0.4-0.4
		c0.1-0.1,0.2-0.3,0.2-0.4c0.1-0.1,0.3-0.5,0.5-0.8l0.4-0.6l-0.1-0.8c-0.1-1-0.2-2.1-0.3-2.4c0-0.3,0-0.3,0.4-0.4
		c0.2,0,0.5-0.1,0.6-0.1C39.51,20.11,39.51,20.11,39.51,20.21L39.51,20.21z M22.91,20.21c1.7,0.3,1.1,3.3-0.8,3.7
		c-1.3,0.3-2.1-0.2-2.1-1.2C20.01,21.01,21.31,19.91,22.91,20.21z M35.61,20.31c0.1,0,0.2,0.1,0.3,0.2s0.1,0.1,0.1,0s0-0.1,0.9-0.2
		c0.7-0.1,0.7-0.1,0.6,0.1c-0.3,1.2-0.5,2.3-0.6,2.9c-0.2,0.8,0,0.7-0.9,0.7h-0.7v-0.1c0-0.1,0-0.1-0.1-0.1
		c-0.2,0.4-1.4,0.2-1.8-0.2C32.61,22.31,34.31,19.71,35.61,20.31z M19.71,20.91c0,0,0,0.1,0,0.2c-0.2,0.7-0.5,2.1-0.6,2.4v0.4h-0.7
		c-0.9,0-0.8,0.1-0.6-0.5c0.2-0.5,0.3-1.1,0.4-1.8c0.1-0.6,0-0.5,0.6-0.6c0.3,0,0.6-0.1,0.7-0.1S19.71,20.91,19.71,20.91z
		 M23.61,25.51c0,0,0,0.1-0.1,0.2c0,0.1-0.1,0.2-0.1,0.2c1.3,0,1.3,0,1.3,0.1l-0.2,0.8h-1.9l-0.1,0.1c-0.2,0.2-1.5,0.5-1.5,0.3
		l0.2-0.8h0.2c0.3,0,0.4-0.1,0.6-0.5l0.2-0.4C23.31,25.51,23.61,25.51,23.61,25.51L23.61,25.51z M26.51,25.51c0,0,0,0.1-0.1,0.3
		c0,0.1-0.1,0.2-0.1,0.2s0.1,0,0.2-0.2c0.5-0.3,0.9-0.4,2.1-0.4c0.5,0,0.9,0,0.9,0s-0.7,2.4-0.8,2.7c-0.2,0.3-0.3,0.4-0.6,0.6v0.1
		h-1.3h-1.3l-0.2,0.8c-0.4,1.4-0.4,1.3,0.2,1.3c0.5,0,0.5-0.1,0.3,0.4l-0.1,0.4h-0.6c-1.4,0-1.6-0.1-1.4-0.6
		c0.1-0.3,1.7-5.5,1.7-5.6C25.41,25.51,26.51,25.51,26.51,25.51L26.51,25.51z M32.31,25.51c0,0,0,0.1,0,0.2
		c-0.1,0.2-0.1,0.2,0.2,0.1c0.4-0.2,1.3-0.3,3.1-0.3h0.5v0.3c0,0.3,0,0.3,0.3,0.4h0.2l-0.1,0.4l-0.1,0.4h-0.4c-1,0-1.2-0.1-1.2-0.7
		v-0.3l-0.1,0.2l-0.1,0.2h-0.2c-0.1,0-0.2,0-0.2,0s-1.1,3.6-1.2,4.1c0,0,0,0.1,0.1,0.1c0.2,0,0.2,0,0.1,0.2c0,0.2,0,0.2,0.2,0.2
		s0.2,0,0.4-0.1s0.2-0.1,0.9-1.1l0.3-0.4h-0.6c-0.7,0-0.7,0-0.5-0.4l0.1-0.4h1.5c0.1-0.5,0.2-0.6,0.2-0.6s-0.3,0-0.7,0h-0.9l0.1-0.4
		l0.1-0.4h2c1.1,0,2,0,2,0s0,0.2-0.1,0.4l-0.1,0.4h-0.7h-0.7c-0.1,0.3-0.2,0.5-0.2,0.5v0.1h0.6c0.8,0,0.7,0,0.6,0.4l-0.1,0.4h-1.5
		l0,0.1l-0.1,0.1h0.6l0.1,0.5c0.1,0.6,0.1,0.6,0.4,0.6c0.2,0,0.2,0,0.1,0.5l-0.1,0.4h-0.4c-0.7,0-0.9-0.1-1-0.9l-0.1-0.5l-0.3,0.4
		c-0.7,1-0.8,1-1.7,1c-0.6,0-0.6,0-0.5-0.2c0-0.1,0-0.1-0.2-0.1s-0.2,0-0.2,0.1v0.1h-1.2v-0.1c0.1-0.2,0.2-0.2-1.2-0.2
		c-1.2,0-1.2,0-1.2-0.1l0-0.1c0.1-0.4,0.1-0.4,0.2-0.4s0.1,0,0.2-0.2c1-3.5,1.4-4.6,1.4-4.7l0.1-0.3h0.6
		C32.01,25.51,32.31,25.51,32.31,25.51L32.31,25.51z M24.51,27.41l-0.2,0.8h-1.3c-0.1,0.4-0.2,0.6-0.2,0.6c0,0.1,0,0.1,0.7,0.1
		c0.4,0,0.7,0,0.7,0v0.1c0,0-0.1,0.2-0.1,0.4l-0.1,0.3h-1.4l-0.2,0.5c-0.4,0.8-0.3,0.8,0.5,0.7c0.4,0,0.3-0.1,0.2,0.4l-0.1,0.4h-0.9
		c-1.5,0-1.5,0-1.1-1.3c0.1-0.4,0.2-0.7,0.2-0.7s-0.2,0-0.4,0c-0.2,0-0.4,0-0.4,0c0.2-0.6,0.2-0.7,0.2-0.8c0,0,0.1-0.1,0.4-0.1h0.4
		l0.2-0.7h-0.4c-0.3,0-0.4,0-0.4,0s0.2-0.7,0.2-0.8C21.11,27.31,24.51,27.41,24.51,27.41z M28.71,29.01c0,0,0,0.2-0.1,0.3
		c-0.1,0.6-0.3,0.8-1,0.8c-0.2,0-0.5,0-0.5,0c0,0.1,0,0.6,0,0.7l0.1,0.1h0.4c0.2,0,0.4,0,0.4,0s-0.2,0.8-0.3,0.8c0,0-1.4,0-1.6,0
		c-0.3-0.1-0.3-0.1-0.2-1.5v-1.2h1.1v0.5h0.2c0.2,0,0.3,0,0.4-0.3l0.1-0.2h0.4C28.71,28.91,28.81,28.91,28.71,29.01z M30.81,19.51
		l-0.2,1.1h0.3c1.7,0,2.4-1.9,0.8-2.1c-0.3,0-0.5,0-0.5,0C31.11,18.51,31.11,18.61,30.81,19.51L30.81,19.51z M22.01,21.01
		c-0.4,0.2-0.8,1.8-0.5,2c0.2,0.2,0.6-0.1,0.8-0.7C22.61,21.31,22.51,20.91,22.01,21.01z M35.21,21.11c-0.4,0.2-0.8,1.8-0.4,2
		c0.4,0.2,1-0.6,1-1.5C35.81,21.21,35.51,21.01,35.21,21.11z M26.31,26.41l-0.1,0.4c-0.1,0.2-0.1,0.4-0.1,0.4s0.1,0,0.3-0.1
		c0.4-0.2,0.6-0.3,1.2-0.3h0.6c0.1-0.3,0.1-0.4,0.1-0.4C28.21,26.41,26.31,26.41,26.31,26.41L26.31,26.41z M25.91,27.71l-0.1,0.3
		h1.9l0.1-0.4C26.31,27.71,25.91,27.71,25.91,27.71z M31.91,26.91c-0.1,0.3-0.2,0.5-0.1,0.5l0.3-0.1c0.1,0,0.4-0.1,0.5-0.1
		s0.2,0,0.3,0l0.2-0.7c0,0-0.2,0-0.5,0h-0.5L31.91,26.91L31.91,26.91z M31.51,28.01c0,0-0.1,0.2-0.2,0.5s-0.2,0.5-0.2,0.5
		s0.1,0,0.3-0.1c0.2-0.1,0.4-0.1,0.5-0.2c0.3,0,0.3-0.1,0.3-0.2c0,0,0.1-0.2,0.1-0.4l0.1-0.3h-0.3
		C31.81,28.01,31.51,28.01,31.51,28.01L31.51,28.01z M30.81,30.61h1c0.2-0.7,0.3-0.9,0.3-0.9h-1L30.81,30.61L30.81,30.61z"/>
</g>
</svg>
