<?xml version="1.0" encoding="utf-8"?>
<!-- Generator: Adobe Illustrator 23.0.0, SVG Export Plug-In . SVG Version: 6.00 Build 0)  -->
<svg version="1.1" id="图层_1" xmlns="http://www.w3.org/2000/svg" xmlns:xlink="http://www.w3.org/1999/xlink" x="0px" y="0px"
	 viewBox="0 0 28 28" style="enable-background:new 0 0 28 28;" xml:space="preserve">
<style type="text/css">
	.st0{fill:#FD2821;}
</style>
<g>
	<g>
		<g>
			<path class="st0" d="M13.9,12.1c0.1-1-0.5-1.8-1.6-1.6c-1.1,0.1-2,1.5-2,2.7c0.1,0.6,0.5,1.2,1.2,1.3
				C12.8,14.4,13.8,13.2,13.9,12.1L13.9,12.1z M16.8,18.8C16.8,18.8,16.8,18.9,16.8,18.8c0.3,0.2,0.6,0.1,0.8-0.1l0.1-0.4
				C17.2,18.4,16.8,18.4,16.8,18.8L16.8,18.8z M15.2,16.7L15,17.6C15.9,17.9,16.3,16.5,15.2,16.7L15.2,16.7z M15.2,16.7"/>
			<path class="st0" d="M22.4,11.6c-0.2,0-0.4,0.1-0.6,0.1c-1.1-1.2-2.5-1.9-4.2-1.9h-0.5c-1-1.6-2.8-2.8-4.8-2.8
				c-2.9,0-5.1,2.1-5.6,4.7c-0.4-0.1-0.8-0.1-1.2-0.1c-2.5,0-4.7,2.1-4.7,4.7C0.9,19,3.1,21,5.6,21h16.8c2.5,0,4.7-2.2,4.7-4.7
				C27.1,13.8,25,11.6,22.4,11.6L22.4,11.6z M20.3,13.5c0,0.1-0.1,0.3-0.2,0.3c-1.2-0.7-1.8,1.7-0.3,1.2c0,0.1,0,0.2,0.1,0.3
				c-0.5,0.3-1.5,0.2-1.6-0.3C17.8,14.1,19.2,13,20.3,13.5L20.3,13.5z M18,12.6c0.2,0,0.3,0.1,0.3,0.3c0,0.2-0.2,0.3-0.3,0.3
				c-0.2,0-0.3-0.1-0.3-0.3C17.7,12.7,17.8,12.6,18,12.6L18,12.6z M17.3,14.9c0.1-0.4,0.2-0.8,0.3-1.2l0.1-0.4h0.6l-0.3,2h-0.7
				L17.3,14.9z M15.6,15c0.1,0.1,0.3-0.1,0.5-0.1l0.3-1.5c0.2,0,0.5,0,0.7-0.1l-0.5,2H16l0.1-0.2c-0.3,0.2-0.8,0.2-1,0.1
				c-0.2-0.1-0.2-0.2-0.2-0.4v-0.1c0.1-0.1,0.1-0.1,0.1-0.2l0.3-1.3h0.7c-0.1,0.1-0.1,0.1-0.1,0.2l-0.3,1.2v0.1
				C15.5,14.9,15.5,14.9,15.6,15L15.6,15z M5.1,15.3l0.6,0.8l-0.5,0.3l-0.5-0.8L5.1,15.3z M3.8,19.5c0-0.2,0.1-0.5,0.1-0.7l0.5-2.3
				h0.7l-0.7,3H3.8z M6.2,18c-0.4,0.4-0.8,0.8-1.3,0.9l-0.2-0.4c0.1,0,0.7-0.5,0.9-0.7C6,17.5,6.4,17,6.5,16.5L7,16.6
				c-0.1,0.3-0.3,0.6-0.5,0.8c0.2,0.3,0.9,1,0.9,1L7,18.7C6.7,18.5,6.6,18.2,6.2,18L6.2,18z M8.8,15.9c0,0.2-0.1,0.2-0.1,0.3l-0.5,2
				c0,0.1,0,0.3-0.1,0.4c-0.2,0.6-0.5,0.9-1.3,0.8l-0.1-0.5c0.2,0,0.4,0.1,0.6,0c0.1,0,0.2-0.2,0.2-0.2L8,16.8
				c0.1-0.2,0.1-0.3,0.1-0.5l0.1-0.1H5.9L6,15.7h2.9L8.8,15.9z M10,19.1c0,0.1-0.1,0.3-0.1,0.5H9.4c0.1-0.7,0.3-1.5,0.5-2.2
				c-0.3,0.2-0.3,0.2-0.7,0.3l-0.1-0.3v-0.1c0.7-0.6,1.3-1,1.6-1.8l0.5,0.2c-0.5,0.5-0.7,1.2-0.9,2L10,19.1z M11.1,17.4l0.5-0.1
				l0.5,1.2l-0.5,0.1L11.1,17.4z M13.4,16.9l-0.3,1.5v0.1c-0.2,0.9-0.3,1-1.2,1h-0.3L11.6,19h0.7c0,0,0.2,0,0.3-0.1
				c0-0.1,0.1-0.4,0.1-0.5l0.4-1.6h-2l0.1-0.5h2l0.1-0.3c-1.4-0.7-3.8-0.8-3.9-2.6c-0.3-2.2,1.9-4,4.1-3.9c0.9,0.1,1.8,0.7,1.9,1.6
				c0.2,2-1.3,3.2-2.5,3.7c0.4,0.2,0.9,0.3,1.3,0.5l-0.2,0.1l-0.3,0.9h0.6l-0.1,0.5h-0.6v0.1H13.4z M14.9,18l-0.3,1.3h-0.7
				c0.3-1.1,0.5-2.1,0.7-3.1c0.8,0.1,1.6-0.1,2,0.3C17.1,17.3,15.9,18.3,14.9,18L14.9,18z M17.5,19.3c-0.3,0.2-1,0.3-1.2,0
				c-0.5-0.7,0.7-1.3,1.5-1.2c0.3-0.7-0.6-0.4-0.9-0.3c0-0.2-0.1-0.2-0.1-0.3c0.5-0.2,1.6-0.5,1.7,0.1c0.1,0.6-0.5,1.1-0.3,1.8
				C17.9,19.3,17.5,19.6,17.5,19.3L17.5,19.3z M18.3,19.3c0-0.2,0.2-0.3,0.3-0.4c0.3,0.2,0.9,0.2,0.9,0c-0.2-0.4-0.8-0.3-0.8-0.8
				c-0.1-0.8,0.9-1.2,1.6-0.8c-0.1,0.1-0.2,0.2-0.3,0.4c-0.2-0.1-0.7-0.3-0.8,0.1c0.2,0.4,0.7,0.3,0.8,0.8
				C20.2,19.3,19,19.6,18.3,19.3L18.3,19.3z M21.9,18.5c0.1,0.8-1.1,1.2-1.8,0.8c0.1-0.2,0.2-0.3,0.3-0.4c0.3,0.1,0.8,0.3,0.9,0
				c-0.2-0.4-0.7-0.3-0.7-0.8c-0.2-0.8,0.8-1.1,1.6-0.8c-0.1,0.1-0.2,0.3-0.3,0.4c-0.2-0.1-0.8-0.3-0.8,0.1
				C21.3,18.1,21.9,18.1,21.9,18.5L21.9,18.5z M21.6,14.3l0.7,1.2h-0.8L21,14.6l-0.3,0.9h-0.7l0.1-0.5c0.1-0.4,0.2-0.8,0.3-1.2
				l0.4-1.6h0.7l-0.5,1.9l0.9-0.8h0.7L21.6,14.3z M21.6,14.3"/>
		</g>
	</g>
</g>
</svg>
