<?xml version="1.0" encoding="utf-8"?>
<!-- Generator: Adobe Illustrator 23.0.0, SVG Export Plug-In . SVG Version: 6.00 Build 0)  -->
<svg version="1.1" id="图层_1" xmlns="http://www.w3.org/2000/svg" xmlns:xlink="http://www.w3.org/1999/xlink" x="0px" y="0px"
	 viewBox="0 0 28 28" style="enable-background:new 0 0 28 28;" xml:space="preserve">
<style type="text/css">
	.st0{fill:none;}
	.st1{fill:#25B446;}
	.st2{fill:#FFFFFF;}
	.st3{fill:#3AE6A3;}
	.st4{fill:#093399;}
</style>
<g id="组_380" transform="translate(-441 -291)">
	<rect id="矩形_89" x="441" y="291" class="st0" width="28" height="28"/>
	<g id="组_102" transform="translate(-194 -75.905)">
		<g id="组_101" transform="translate(640 372.905)">
			<path id="路径_329" class="st1" d="M9.1,3.2H4.2C4,3.2,3.9,3.3,3.9,3.5v5.1c0,0.2,0.1,0.3,0.3,0.3h4.9c0.2,0,0.3-0.1,0.3-0.3
				V3.5C9.4,3.3,9.2,3.2,9.1,3.2C9.1,3.2,9.1,3.2,9.1,3.2z M7.5,7H5.7V5.2h1.8V7z"/>
			<path id="路径_330" class="st1" d="M14,3.2h-3.6c-0.1,0-0.3,0.1-0.3,0.3c0,0,0,0,0,0v3.6c0,0.1,0.1,0.3,0.3,0.3c0,0,0,0,0,0H14
				c0.1,0,0.3-0.1,0.3-0.3c0,0,0,0,0,0V3.4C14.3,3.3,14.2,3.2,14,3.2C14,3.2,14,3.2,14,3.2z"/>
			<rect id="矩形_20" x="11.7" y="4.7" class="st2" width="1" height="1"/>
			<g id="组_98" transform="translate(3.9 8.874)">
				<path id="矩形_21" class="st1" d="M7.4,1.8L7.4,1.8c0.4,0,0.8,0.3,0.8,0.8l0,0v1.3c0,0.4-0.3,0.8-0.8,0.8l0,0l0,0
					c-0.4,0-0.8-0.3-0.8-0.8c0,0,0,0,0,0V2.6C6.6,2.2,6.9,1.8,7.4,1.8C7.4,1.8,7.4,1.8,7.4,1.8z"/>
				<path id="路径_331" class="st1" d="M0,4.4c0,0.1,0.1,0.3,0.3,0.3c0,0,0,0,0,0h4.9c0.1,0,0.3-0.1,0.3-0.3c0,0,0,0,0,0V0H0V4.4z
					 M1.8,1.6h1.8v1.6H1.8V1.6z"/>
				<path id="路径_332" class="st1" d="M10.1,1.8h-1c-0.1,0-0.3,0.1-0.3,0.3c0,0,0,0,0,0v2.3c0,0.1,0.1,0.3,0.3,0.3c0,0,0,0,0,0h1
					c0.1,0,0.3-0.1,0.3-0.3c0,0,0,0,0,0V2.1C10.4,1.9,10.3,1.8,10.1,1.8C10.1,1.8,10.1,1.8,10.1,1.8z"/>
			</g>
			<path id="路径_333" class="st1" d="M14,8.2h-3.3c-0.1,0-0.2,0.1-0.2,0.2v1.2c0,0.1,0.1,0.2,0.2,0.2H14c0.1,0,0.2-0.1,0.2-0.2
				V8.4C14.3,8.3,14.2,8.2,14,8.2L14,8.2z"/>
			<g id="组_100" transform="translate(0.738 0)">
				<g id="组_99" transform="translate(0 0)">
					<path id="路径_334" class="st1" d="M11.5,1.1h3.7c0.2,0,0.4,0.2,0.4,0.4c0,0,0,0,0,0v3.7c0,0.3,0.2,0.6,0.6,0.6
						s0.6-0.2,0.6-0.6V1.5C16.7,0.7,16,0,15.2,0c0,0,0,0,0,0h-3.7C11.2,0,11,0.2,11,0.6S11.2,1.1,11.5,1.1
						C11.5,1.1,11.5,1.1,11.5,1.1z"/>
					<path id="路径_335" class="st1" d="M16.2,11c-0.3,0-0.6,0.2-0.6,0.6c0,0,0,0,0,0l0,0v3.7c0,0.2-0.2,0.4-0.4,0.4l0,0h-3.7
						c-0.3,0-0.6,0.2-0.6,0.6s0.2,0.6,0.6,0.6c0,0,0,0,0,0h3.8c0.8,0,1.5-0.7,1.5-1.5v-3.7C16.7,11.2,16.5,11,16.2,11
						C16.2,11,16.2,11,16.2,11z"/>
					<path id="路径_336" class="st1" d="M5.2,15.6H1.5c-0.2,0-0.4-0.2-0.4-0.4l0,0v-3.7c0-0.3-0.2-0.6-0.6-0.6c0,0,0,0,0,0
						C0.3,11,0,11.2,0,11.5l0,0v3.7c0,0.8,0.7,1.5,1.5,1.5h3.7c0.3,0,0.6-0.2,0.6-0.6c0,0,0,0,0,0C5.8,15.8,5.5,15.6,5.2,15.6z"/>
					<path id="路径_337" class="st1" d="M0.6,5.8c0.3,0,0.6-0.2,0.6-0.6c0,0,0,0,0,0l0,0V1.5c0-0.2,0.2-0.4,0.4-0.4h0h3.7
						c0.3,0,0.6-0.2,0.6-0.6c0,0,0,0,0,0C5.8,0.3,5.5,0,5.2,0H1.5C0.7,0,0,0.7,0,1.5l0,0v3.7C0,5.5,0.3,5.8,0.6,5.8L0.6,5.8z"/>
				</g>
			</g>
			<path id="路径_338" class="st3" d="M17.6,7.8"/>
			<path id="路径_339" class="st4" d="M14,8.2h-3.3c-0.1,0-0.2,0.1-0.2,0.2v0.5h3.8V8.4C14.3,8.3,14.2,8.2,14,8.2L14,8.2z"/>
			<path id="路径_340" class="st1" d="M17.6,7.8H0.6C0.2,7.8,0,8,0,8.4c0,0,0,0,0,0c0,0.3,0.2,0.6,0.6,0.6c0,0,0,0,0,0h17.1
				c0.3,0,0.6-0.2,0.6-0.6c0,0,0,0,0,0C18.2,8,17.9,7.8,17.6,7.8z"/>
		</g>
	</g>
</g>
</svg>
