<?xml version="1.0" encoding="utf-8"?>
<!-- Generator: Adobe Illustrator 23.0.0, SVG Export Plug-In . SVG Version: 6.00 Build 0)  -->
<svg version="1.1" id="图层_1" xmlns="http://www.w3.org/2000/svg" xmlns:xlink="http://www.w3.org/1999/xlink" x="0px" y="0px"
	 viewBox="0 0 28 28" style="enable-background:new 0 0 28 28;" xml:space="preserve">
<style type="text/css">
	.st0{fill:none;}
	.st1{fill:#DE3232;}
	.st2{fill:#004888;}
	.st3{fill:#008089;}
	.st4{fill-rule:evenodd;clip-rule:evenodd;fill:#FFFFFF;}
	.st5{fill:#FFFFFF;}
</style>
<g id="组_381" transform="translate(-622 -290)">
	<rect id="矩形_90" x="622" y="290" class="st0" width="28" height="28"/>
	<g id="组_377" transform="translate(0.72 -0.016)">
		<g id="组_90" transform="translate(624.28 297.016)">
			<path id="路径_312" class="st1" d="M4.4,0h5.6c0.6,0,1.1,0.4,1.2,1c0,0.1,0,0.3-0.1,0.4L8.5,12.7c-0.2,0.8-0.9,1.4-1.8,1.4H1.1
				c-0.6,0-1.1-0.4-1.1-1.1C0,13,0,12.9,0,12.7L2.7,1.4C2.9,0.6,3.6,0,4.4,0z"/>
			<path id="路径_313" class="st2" d="M9.6,0h6.5c0.8,0,0.4,0.6,0.2,1.4l-2.6,11.3c-0.2,0.8-0.1,1.4-0.9,1.4H6.3
				c-0.6,0-1.1-0.4-1.1-1.1c0-0.1,0-0.3,0.1-0.4L7.9,1.4C8.1,0.6,8.8,0,9.6,0L9.6,0z"/>
			<path id="路径_314" class="st3" d="M15.9,0h5.6c0.6,0,1.1,0.4,1.1,1.1c0,0.1,0,0.3-0.1,0.4L20,12.7c-0.2,0.8-0.9,1.4-1.8,1.4
				h-5.6c-0.6,0-1.1-0.4-1.2-1c0-0.1,0-0.3,0.1-0.4l2.6-11.3C14.3,0.6,15,0,15.9,0L15.9,0z"/>
			<g id="组_89" transform="translate(3.599 3.6)">
				<path id="路径_315" class="st4" d="M11.1,7h0.5l0.2-0.5h-0.5L11.1,7z M11.5,5.6l-0.2,0.6c0.1-0.1,0.2-0.1,0.3-0.1
					c0.1,0,0.3,0,0.3,0L12,5.6L11.5,5.6z M11.8,4.7l-0.2,0.6c0.1,0,0.2-0.1,0.3-0.1c0.1,0,0.2,0,0.3,0l0.1-0.4H11.8z M13,4.7L12.3,7
					h0.2l-0.1,0.5h-0.2l0,0.1h-0.7l0-0.1h-1.3l0.1-0.4h0.1l0.7-2.3l0.1-0.5h0.7l-0.1,0.2c0.1-0.1,0.2-0.1,0.3-0.2
					c0.2,0,1.1-0.1,1.1-0.1l-0.1,0.5H13z"/>
				<path id="路径_316" class="st5" d="M13.2,4.3H14l0,0.3c0,0,0,0.1,0.1,0.1h0.1L14.1,5h-0.4c-0.3,0-0.5-0.1-0.5-0.3L13.2,4.3
					L13.2,4.3z"/>
				<path id="路径_317" class="st5" d="M13.3,6.4h-0.7L12.8,6h0.8l0.1-0.4h-0.8L13,5.2h2.1L15,5.6h-0.7L14.2,6h0.7l-0.1,0.4H14
					l-0.1,0.2h0.3L14.3,7c0,0,0,0.1,0,0.1c0.1,0,0.1,0,0.2,0h0.1l-0.1,0.5h-0.2c0,0-0.1,0-0.2,0c-0.1,0-0.1,0-0.2-0.1
					c-0.1,0-0.1-0.1-0.1-0.2l-0.1-0.5l-0.4,0.5c-0.1,0.2-0.3,0.3-0.5,0.3h-0.5l0.1-0.4h0.2c0,0,0.1,0,0.1,0c0,0,0.1,0,0.1-0.1
					L13.3,6.4L13.3,6.4z"/>
				<path id="路径_318" class="st5" d="M5.9,5.3h1.8L7.6,5.7H6.8L6.7,6.1h0.7L7.3,6.5H6.6L6.4,7.1c0,0.1,0.2,0.1,0.2,0.1L7,7.1
					L6.9,7.6H6c-0.1,0-0.1,0-0.2,0c-0.1,0-0.1,0-0.1-0.1c0-0.1-0.1-0.1,0-0.2l0.2-0.8H5.5l0.1-0.5h0.4l0.1-0.4H5.8L5.9,5.3L5.9,5.3z
					"/>
				<path id="路径_319" class="st5" d="M7.1,4.5h0.7L7.7,5h-1L6.6,5.1c0,0-0.1,0-0.1,0.1C6.4,5.2,6.2,5.2,6.1,5.2H5.8l0.1-0.4H6
					c0.1,0,0.1,0,0.2,0c0,0,0.1-0.1,0.1-0.1l0.2-0.3h0.7L7.1,4.5L7.1,4.5z"/>
				<path id="路径_320" class="st4" d="M8.5,5.3C8.7,5.1,8.9,5,9.1,5c0.1,0,0.6,0,0.6,0l0.1-0.2h-1L8.5,5.3L8.5,5.3z M9.5,5.4h-1
					L8.4,5.7h0.9c0,0,0.1,0,0.1,0L9.5,5.4L9.5,5.4z M8.2,4.3h0.6L8.7,4.6C8.8,4.5,8.9,4.4,9,4.4c0.1,0,0.3-0.1,0.5-0.1l1,0l-0.3,1.2
					c0,0.1-0.1,0.3-0.2,0.4c0,0.1-0.1,0.1-0.2,0.2C9.7,6,9.7,6,9.6,6.1c-0.1,0-0.2,0-0.3,0h-1L8,7c0,0.1,0,0.1,0,0.2
					c0,0,0.1,0,0.1,0l0.4,0L8.4,7.6H7.9c-0.2,0-0.3,0-0.3,0c-0.1,0-0.1,0-0.2,0c0,0-0.1-0.1-0.1-0.1c0-0.1,0-0.2,0.1-0.2L8.2,4.3
					L8.2,4.3z"/>
				<path id="路径_321" class="st5" d="M10,6.1L9.9,6.4c0,0.1-0.1,0.2-0.1,0.2C9.7,6.7,9.6,6.8,9.5,6.7l-0.3,0v0.3
					c0,0.1,0,0.1,0,0.1c0,0,0,0,0,0l0.1,0l0.3,0L9.5,7.6H9.1c-0.2,0-0.4,0-0.5-0.1c-0.1,0-0.1-0.1-0.1-0.2l0-1.2h0.6l0,0.3h0.1
					c0,0,0.1,0,0.1,0c0,0,0,0,0-0.1l0.1-0.2L10,6.1z"/>
				<path id="路径_322" class="st5" d="M2.6,0c0,0.1-0.4,1.9-0.4,1.9c0,0.3-0.1,0.6-0.4,0.8C1.7,2.8,1.5,2.9,1.4,2.9
					C1.2,2.9,1,2.7,0.9,2.5c0,0,0,0,0,0V2.4L1,1.9c0,0,0.4-1.6,0.5-1.9c0,0,0,0,0,0c-0.3,0-0.6,0-1,0c0,0,0,0.1,0,0.1L0.1,2l0,0.2
					L0,2.7C0,2.8,0,2.9,0.1,3c0.2,0.3,0.7,0.4,1,0.4c0.4,0,0.7-0.1,1-0.2c0.4-0.2,0.6-0.6,0.7-1l0-0.2c0,0,0.4-1.7,0.5-1.9
					c0,0,0,0,0,0C3.1,0,2.8,0,2.6,0L2.6,0z"/>
				<path id="路径_323" class="st5" d="M5.2,0H4.9C4.3,0,4.1,0,4,0c0,0,0,0.1,0,0.1l-0.2,1L3.2,3.4c0.5,0,0.8,0,0.8,0
					c0-0.1,0.1-0.7,0.1-0.7s0.1-0.4,0.1-0.5c0,0,0,0,0.1-0.1h0c0.5,0.1,1-0.1,1.4-0.3C6.1,1.7,6.3,1.3,6.3,1c0-0.1,0-0.2,0-0.3
					c0-0.1,0-0.3-0.1-0.4C6.1,0,5.6,0,5.2,0L5.2,0z M5.5,1.1c0,0.2-0.2,0.4-0.4,0.5C4.9,1.6,4.7,1.7,4.5,1.7H4.4l0-0.1l0.2-1l0-0.1
					l0,0l0.1,0c0,0,0.5,0,0.5,0C5.4,0.6,5.5,0.9,5.5,1.1L5.5,1.1z"/>
				<path id="路径_324" class="st4" d="M7.2,2.8c-0.3-0.7,0.5-1.3,1.3-1l0,0l0.2-0.6C6.3,0.2,4.8,4.2,8,3.6l0.2-0.7
					C7.9,3,7.4,3.1,7.2,2.8z"/>
				<path id="路径_325" class="st5" d="M11.5,1.2c-0.4,0.1-0.5,0.1-0.9,0.2l0,0l0,0.1c-0.1-0.1-0.2-0.2-0.3-0.3
					c-0.4,0-0.7,0.1-1,0.4C9,1.8,8.8,2.1,8.7,2.4C8.7,2.7,8.6,3.3,9.1,3.5c0.1,0.1,0.3,0.1,0.5,0.1c0.2,0,0.4-0.1,0.5-0.3
					c0,0.1,0,0.1-0.1,0.2l0,0c0.4,0,0.5,0,0.9,0l0,0c0.1-0.4,0.1-0.7,0.3-1.4C11.4,1.9,11.4,1.5,11.5,1.2L11.5,1.2z M9.8,3.1
					c0,0-0.2,0-0.2-0.2c0-0.1,0-0.3,0.1-0.4c0.1-0.4,0.2-0.7,0.5-0.7c0.2,0,0.3,0.2,0.2,0.6c0,0.2-0.1,0.4-0.2,0.6
					C10,3,9.9,3.1,9.8,3.1z"/>
				<path id="路径_326" class="st5" d="M16.1,1.6c-0.1-0.1-0.3-0.2-0.5-0.2c-0.1,0-0.2,0-0.4,0.1c-0.1,0.1-0.3,0.1-0.4,0.2
					l0.3-1.1l-0.6,0l-0.9,3.2l0.6,0l0.3-1c0-0.2,0.1-0.4,0.2-0.5C14.8,2.2,14.9,2,15,2c0.1-0.1,0.2-0.1,0.3-0.1c0.1,0,0.1,0,0.2,0.1
					c0,0.1,0.1,0.1,0.1,0.2c0,0.1,0,0.2-0.1,0.3l-0.7,2.1c0,0,0,0-0.1,0c-0.1,0-0.2,0-0.2,0h-0.1L14.2,5l0.4,0c0.3,0,0.5,0,0.7-0.3
					l0.7-2.3c0-0.1,0.1-0.3,0.1-0.4C16.2,1.9,16.2,1.7,16.1,1.6z"/>
				<path id="路径_327" class="st4" d="M13,1.9C13.2,1.9,13.4,2,13.6,2l0.1-0.6c-1.3-0.6-2.4,0.5-1.8,1.1c0.2,0.1,0.4,0.2,0.7,0.3
					C12.8,3,12.6,3.1,12,3l-0.5-0.1l-0.1,0.7c1.1,0.3,2.3,0.1,2.1-1c-0.1-0.2-0.3-0.3-0.5-0.4c0,0-0.3-0.1-0.3-0.3
					C12.7,1.8,13,1.9,13,1.9z"/>
			</g>
		</g>
	</g>
</g>
</svg>
