<?xml version="1.0" encoding="utf-8"?>
<!-- Generator: Adobe Illustrator 23.0.0, SVG Export Plug-In . SVG Version: 6.00 Build 0)  -->
<svg version="1.1" id="图层_1" xmlns="http://www.w3.org/2000/svg" xmlns:xlink="http://www.w3.org/1999/xlink" x="0px" y="0px"
	 viewBox="0 0 48 48" style="enable-background:new 0 0 48 48;" xml:space="preserve">
<style type="text/css">
	.st0{fill:#23B523;}
	.st1{fill:#FFFFFF;}
</style>
<g>
	<path class="st0" d="M12,6h24c3.31,0,6,2.69,6,6v24c0,3.31-2.69,6-6,6H12c-3.31,0-6-2.69-6-6V12C6,8.69,8.69,6,12,6z"/>
	<path class="st1" d="M27.87,32.29L27.87,32.29z"/>
	<path class="st1" d="M17.83,23.8v0.05l0,0V23.8z"/>
	<path class="st1" d="M21.14,26.88c-1.44,0.8-1.66-0.45-1.66-0.45l-1.8-4.21c-0.7-2,0.6-0.9,0.6-0.9s1.11,0.84,2,1.36
		c0.55,0.3,1.21,0.35,1.8,0.14l11.81-5.43c-2.45-2.91-6.09-4.55-9.89-4.47c-6.65,0-12,4.7-12,10.5c0.06,3.33,1.77,6.42,4.56,8.24
		L16,34.53c0,0-0.24,0.84,0.61,0.45c0.57-0.26,2-1.21,2.92-1.79c1.43,0.49,2.94,0.74,4.45,0.74c6.65,0,12-4.7,12-10.51
		c-0.01-1.64-0.44-3.26-1.26-4.68C31,21,22.27,26.25,21.14,26.88z"/>
</g>
</svg>
